<svg width="24" height="24" viewBox="0 0 24 24" fill="none" xmlns="http://www.w3.org/2000/svg">
<path fill-rule="evenodd" clip-rule="evenodd" d="M15 9.75001C15 6.85051 12.6495 4.5 9.75001 4.5C6.85051 4.5 4.5 6.85051 4.5 9.75001C4.5 12.6495 6.85051 15 9.75001 15C12.6495 15 15 12.6495 15 9.75001ZM9.75001 3C13.478 3 16.5 6.02208 16.5 9.75001C16.5 11.4324 15.8845 12.9711 14.8664 14.1531L20.7641 19.7039C21.0656 19.9877 21.08 20.4624 20.7962 20.7641C20.5123 21.0656 20.0376 21.08 19.736 20.7962L13.7651 15.1766C12.643 16.0082 11.254 16.5 9.75001 16.5C6.02208 16.5 3 13.478 3 9.75001C3 6.02208 6.02208 3 9.75001 3Z" fill="#243443"/>
</svg>
